<svg xmlns="http://www.w3.org/2000/svg" viewBox="0 0 1018 679"><defs><style>.cls-1{fill:#fff;}.cls-1,.cls-2{stroke:#000;stroke-miterlimit:10;}</style></defs><g id="Layer_2" data-name="Layer 2"><g id="checkerboard"><rect class="cls-1" x="113.5" y="0.5" width="113" height="113"/><rect class="cls-2" x="226.5" y="0.5" width="113" height="113"/><rect class="cls-1" x="339.5" y="0.5" width="113" height="113"/><rect class="cls-2" x="452.5" y="0.5" width="113" height="113"/><rect class="cls-1" x="565.5" y="0.5" width="113" height="113"/><rect class="cls-2" x="678.5" y="0.5" width="113" height="113"/><rect class="cls-1" x="791.5" y="0.5" width="113" height="113"/><rect class="cls-2" x="904.5" y="0.5" width="113" height="113"/><rect class="cls-2" x="0.5" y="0.5" width="113" height="113"/><rect class="cls-2" x="113.5" y="113.5" width="113" height="113"/><rect class="cls-1" x="226.5" y="113.5" width="113" height="113"/><rect class="cls-2" x="339.5" y="113.5" width="113" height="113"/><rect class="cls-1" x="452.5" y="113.5" width="113" height="113"/><rect class="cls-2" x="565.5" y="113.5" width="113" height="113"/><rect class="cls-1" x="678.5" y="113.5" width="113" height="113"/><rect class="cls-2" x="791.5" y="113.5" width="113" height="113"/><rect class="cls-1" x="904.5" y="113.5" width="113" height="113"/><rect class="cls-1" x="0.5" y="113.5" width="113" height="113"/><rect class="cls-1" x="113.5" y="226.5" width="113" height="113"/><rect class="cls-2" x="226.5" y="226.5" width="113" height="113"/><rect class="cls-1" x="339.5" y="226.5" width="113" height="113"/><rect class="cls-2" x="452.5" y="226.5" width="113" height="113"/><rect class="cls-1" x="565.5" y="226.5" width="113" height="113"/><rect class="cls-2" x="678.5" y="226.5" width="113" height="113"/><rect class="cls-1" x="791.5" y="226.5" width="113" height="113"/><rect class="cls-2" x="904.5" y="226.5" width="113" height="113"/><rect class="cls-2" x="0.5" y="226.5" width="113" height="113"/><rect class="cls-2" x="113.5" y="339.5" width="113" height="113"/><rect class="cls-1" x="226.5" y="339.5" width="113" height="113"/><rect class="cls-2" x="339.5" y="339.5" width="113" height="113"/><rect class="cls-1" x="452.5" y="339.5" width="113" height="113"/><rect class="cls-2" x="565.5" y="339.5" width="113" height="113"/><rect class="cls-1" x="678.5" y="339.5" width="113" height="113"/><rect class="cls-2" x="791.5" y="339.5" width="113" height="113"/><rect class="cls-1" x="904.5" y="339.5" width="113" height="113"/><rect class="cls-1" x="0.5" y="339.5" width="113" height="113"/><rect class="cls-1" x="113.5" y="452.5" width="113" height="113"/><rect class="cls-2" x="226.5" y="452.5" width="113" height="113"/><rect class="cls-1" x="339.5" y="452.5" width="113" height="113"/><rect class="cls-2" x="452.5" y="452.5" width="113" height="113"/><rect class="cls-1" x="565.5" y="452.5" width="113" height="113"/><rect class="cls-2" x="678.5" y="452.5" width="113" height="113"/><rect class="cls-1" x="791.5" y="452.5" width="113" height="113"/><rect class="cls-2" x="904.5" y="452.5" width="113" height="113"/><rect class="cls-2" x="0.5" y="452.5" width="113" height="113"/><rect class="cls-2" x="113.5" y="565.5" width="113" height="113"/><rect class="cls-1" x="226.5" y="565.5" width="113" height="113"/><rect class="cls-2" x="339.5" y="565.5" width="113" height="113"/><rect class="cls-1" x="452.5" y="565.5" width="113" height="113"/><rect class="cls-2" x="565.5" y="565.5" width="113" height="113"/><rect class="cls-1" x="678.5" y="565.5" width="113" height="113"/><rect class="cls-2" x="791.5" y="565.5" width="113" height="113"/><rect class="cls-1" x="904.5" y="565.5" width="113" height="113"/><rect class="cls-1" x="0.5" y="565.5" width="113" height="113"/></g></g></svg>