<svg xmlns="http://www.w3.org/2000/svg" xmlns:xlink="http://www.w3.org/1999/xlink" viewBox="0 0 180.92 104.94"><defs><style>.cls-1{fill:url(#radial-gradient);}.cls-2{fill:#e10000;}.cls-3{fill:#3d445f;stroke:#477589;stroke-miterlimit:10;stroke-width:0.5px;}.cls-4{fill:#477589;}</style><radialGradient id="radial-gradient" cx="59.24" cy="55.27" r="8" gradientUnits="userSpaceOnUse"><stop offset="0.3" stop-color="#e10000"/><stop offset="1" stop-color="#171317"/></radialGradient></defs><g id="Layer_2" data-name="Layer 2"><g id="Logo-V1"><circle id="Dot" class="cls-1" cx="59.24" cy="55.27" r="8"/><rect id="Beam" class="cls-2" x="59.24" y="54.93" width="58" height="0.68" transform="translate(176.49 110.54) rotate(180)"/><path id="Gun" class="cls-3" d="M179.25,91.23l-6.38-16.54c-2.68-6.65,6.47-7.82,6.47-7.82,2-1.08,0-2.25,0-2.25-2.13.48-3.7-2.35-3.7-2.35l-1.2-2.64c-.65-1.57-.83-1.76-.09-4.8s-1.62-2.88-2-2.44a1.88,1.88,0,0,1-2.69.09c-1-1-3.41-1-3.41-1l-.93-2h-1l-1,2H145.32v.58H107.8v-1h-.74a2.77,2.77,0,0,0-.65-1.37,3.62,3.62,0,0,0-3.7,2.45h-2.4a6.69,6.69,0,0,0,.09,5.58h2.68v7.92h5.64l.46,1.27h14c13.13,0,10.82,11.65,10.82,11.65,9.89,4.79,16.08,1.76,16.08,1.76,4.9-1.08,5.83,3.32,5.83,3.32l3.32,14a11.56,11.56,0,0,1-.11,3.91v.2h0v2s-.08,1.07,1.32.9L176,103.29a2.13,2.13,0,0,0,1.85,1.13,2.22,2.22,0,0,0,2.15-2.28,1.47,1.47,0,0,0-.12-.61h.48c1.11-6.55-1.11-10.29-1.11-10.29Zm-6.06-38.56a.75.75,0,1,1-.71.75A.73.73,0,0,1,173.19,52.67Zm-19.55,23.1a4.3,4.3,0,0,1-2,2.74c-6,2.13-9.85,1.53-12.89.56a5,5,0,0,1-3.47-5c0-5.18,5.08-5.08,5.08-5.08h4.16c2.32,5.87-3.32,8.51-3.32,8.51-.75.19,0,.78,0,.78,3.42-.09,6.19-6,6.19-6l-.09-2.44,1.29-.88c5.08,0,5.36,5,5.08,6.75Zm25.61,26.36a1.4,1.4,0,1,1-2.8,0,1.62,1.62,0,0,1,.11-.58l2.56,0a1.54,1.54,0,0,1,.13.6"/><g id="Take"><path class="cls-4" d="M1.21,0H43.57V11.14H29.36v34H15.42v-34H1.21Z"/><path class="cls-4" d="M60.28,23l-12-1.26a13.46,13.46,0,0,1,2-4.94A10.75,10.75,0,0,1,54,13.69a15.26,15.26,0,0,1,4.73-1.48,38.16,38.16,0,0,1,6.53-.52,51.88,51.88,0,0,1,9,.63A11.64,11.64,0,0,1,79.94,15a9.13,9.13,0,0,1,2.52,3.92,14.09,14.09,0,0,1,.93,4.85V38.14a17.12,17.12,0,0,0,.29,3.62A16,16,0,0,0,85,45.1H73.2a11.39,11.39,0,0,1-.92-1.93,14.23,14.23,0,0,1-.43-2.07A16.22,16.22,0,0,1,67,44.48a20.43,20.43,0,0,1-7.72,1.35q-5.85,0-8.88-2.7a8.61,8.61,0,0,1-3-6.68,8.73,8.73,0,0,1,2.19-6.12q2.17-2.4,8.06-3.57c4.69-.94,7.74-1.6,9.13-2a43.58,43.58,0,0,0,4.43-1.49,4.38,4.38,0,0,0-1-3.23,4.76,4.76,0,0,0-3.35-.93,8.67,8.67,0,0,0-4.62,1A5.4,5.4,0,0,0,60.28,23Zm10.86,6.58q-2.58.93-5.38,1.63-3.81,1-4.83,2a3.15,3.15,0,0,0-1,2.31,3.1,3.1,0,0,0,1,2.41,4.31,4.31,0,0,0,3,.94,7.86,7.86,0,0,0,3.89-1,6.11,6.11,0,0,0,2.55-2.48,8.31,8.31,0,0,0,.75-3.8Z"/><path class="cls-4" d="M93.92,0h12.79V23.28l9.35-10.85h15.42L119.76,23.87,132.15,45.1h-14.1L111.43,32l-4.72,4.61V45.1H93.92Z"/><path class="cls-4" d="M173.08,31.87H148a8.13,8.13,0,0,0,1.63,4.49,5.92,5.92,0,0,0,4.74,2.12,7.08,7.08,0,0,0,3.51-.92A8.28,8.28,0,0,0,160,35.5l12.34,1.14a17.77,17.77,0,0,1-6.83,7.06q-4,2.13-11.48,2.13-6.48,0-10.21-1.83a15,15,0,0,1-6.17-5.81,17.54,17.54,0,0,1-2.44-9.37c0-5.1,1.63-9.24,4.9-12.39s7.79-4.74,13.56-4.74q7,0,11.07,2.12A14.34,14.34,0,0,1,171,20a22.45,22.45,0,0,1,2.13,10.49Zm-12.74-6q-.37-3.63-2-5.2a6.13,6.13,0,0,0-8.94.8,8.73,8.73,0,0,0-1.45,4.4Z"/></g><g id="Aim"><path class="cls-4" d="M32.25,97H16.43l-2.2,7.44H0l17-45.1h15.2l17,45.1H34.5Zm-2.89-9.75L24.38,71,19.45,87.26Z"/><path class="cls-4" d="M53.16,71.78H65.68v32.67H53.16Z"/><path class="cls-4" d="M73.77,71.78H85.46v4.77a16.19,16.19,0,0,1,5.1-4.24A13.82,13.82,0,0,1,96.76,71a11.94,11.94,0,0,1,6.2,1.39,10.33,10.33,0,0,1,3.72,4.12,18.93,18.93,0,0,1,5.38-4.35,13.88,13.88,0,0,1,6-1.16c3.5,0,6.24,1,8.2,3.13s2.95,5.33,2.95,9.76v20.52H116.65V85.84a5.24,5.24,0,0,0-.86-3.29,3.77,3.77,0,0,0-3.13-1.69,4.4,4.4,0,0,0-3.55,1.6c-.9,1.06-1.35,2.78-1.35,5.13v16.86H95.21v-18A11.08,11.08,0,0,0,95,83.53a4,4,0,0,0-1.39-2,3.72,3.72,0,0,0-2.31-.75,4.44,4.44,0,0,0-3.55,1.63c-.93,1.08-1.39,2.87-1.39,5.35v16.67H73.77Z"/></g></g></g></svg>