<svg xmlns="http://www.w3.org/2000/svg" viewBox="0 0 251 251"><defs><style>.cls-1,.cls-2,.cls-3,.cls-4{stroke:#000;stroke-miterlimit:10;}.cls-2{fill:#0071bc;}.cls-3{fill:red;}.cls-4{fill:#ff0;}</style></defs><g id="Layer_2" data-name="Layer 2"><g id="Bullseye"><path id="_4-ring" data-name="4-ring" class="cls-1" d="M250.5,125.5A125,125,0,1,1,125.5.5,125,125,0,0,1,250.5,125.5Z"/><path id="_6-ring" data-name="6-ring" class="cls-2" d="M225.5,125.5a100,100,0,1,1-100-100A100,100,0,0,1,225.5,125.5Z"/><path id="_8-ring" data-name="8-ring" class="cls-3" d="M200.5,125.5a75,75,0,1,1-75-75A75,75,0,0,1,200.5,125.5Z"/><path id="_10-ring" data-name="10-ring" class="cls-4" d="M175.5,125.5a50,50,0,1,1-50-50A50,50,0,0,1,175.5,125.5Z"/></g></g></svg>